<?xml version="1.0" encoding="UTF-8"?>
<svg id="Layer_2" data-name="Layer 2" xmlns="http://www.w3.org/2000/svg" viewBox="0 0 701.33 45.17">
  <defs>
    <style>
      .cls-1 {
        fill: #bb351c;
      }

      .cls-2 {
        fill: #ad331c;
      }
    </style>
  </defs>
  <g id="Layer_1-2" data-name="Layer 1">
    <g>
      <path class="cls-2" d="M468.63,43.97l-21.21-.13c-1.67-.01-2.53-2.38-2.37-3.52.27-1.86,1.59-3.03,3.53-3.17l6.16-.45V8.57s-7.89-.19-7.89-.19c.04,3.39.1,6.54-.82,9.74-.48,1.69-2.42,1.87-3.83,1.69-1.8-.24-2.48-1.86-2.52-3.77l-.3-15.13h37.96c-.05,5.74.35,11.27-.61,16.86-.25,1.48-1.61,2.02-2.67,2.07-4.75.24-4.02-4.93-4.19-11.41h-8.02s0,28.5,0,28.5c4.99-.26,9.8-.16,9.84,3.76.01,1.27-1.2,3.3-3.08,3.29Z"/>
      <path class="cls-2" d="M182.85,32.41l-14.69.17-11.21-17.36-.1,21.74c2.06-.06,4.02-.3,5.63.79,1.16.79,1.93,2.12,1.77,3.36-.13,1.03-1.18,2.44-2.59,2.66-4.93.78-10.09,1.02-14.9-.24-1.62-.43-1.93-2.9-1.48-3.93.61-1.4,1.81-2.5,4-2.62l.12-22.57h14.48c.48,0,.96-.18,1.19-.43l10.09,15.31.25-20.81-5.35-.78c-1.44-.21-2.18-2.1-1.98-3.42.16-1.05,1.21-2.8,2.66-2.99,4.44-.6,8.94-.53,13.42-.08,2.1.21,3.33,2.57,2.98,4.2-.41,1.9-2.13,2.69-4.26,2.97l-.02,24.03Z"/>
      <path class="cls-2" d="M111.09,33.05c-2.84-.73-6.02-1.01-8.7-.2.22-1,.94-1.78,1.51-2.9,4.38-8.59.54-19.28-8.85-22.19-4.13-1.28-8.07,1-10.87,4.02-5.31,5.71-5.44,14.29-1.31,20.66l-8.58-.19c-3.21-8.18-2.34-17.71,3.21-24.64,5.71-7.12,15.16-9.73,23.4-5.68,4.22,2.08,7.89,5.69,9.98,9.89,3.34,6.73,2.74,14.42.21,21.21Z"/>
      <path class="cls-2" d="M330.5,32.61l-7.91-.63c2.06-2.55,2.68-6.09,2.76-9.58.15-7.15-4.64-13.39-11.5-14.89-3.74-.82-6.75.67-9.37,2.98-3.44,3.04-5.13,6.76-5.24,11.42-.09,3.91.43,7.48,2.81,10.54l-8.37-.18c-1.84-4.83-2.29-10.03-1.21-15.37,2.2-10.93,12.96-19.27,24.67-16.23,12.7,3.3,18.93,19.22,13.36,31.92Z"/>
      <path class="cls-2" d="M687.07,20.71l-6.74-.26c-.57,0-.91-.28-1-.79l8.3-18.59c3.66-.11,7.4-.38,11.03.58,1.78.47,2.3,2.72,1.83,4.08-.51,1.46-1.82,2.23-3.62,2.7l.09,28.59c2.33.04,3.66.94,4.2,2.44.39,1.1.31,3.51-1.28,3.94-5.12,1.37-16.07,1.78-17.3-1.49-.52-1.37-.48-3.11.83-3.96,1.77-1.15,3.82-1.07,6.01-1.02l-.2-19.81c-1.21,1.19-1.61,2.45-2.12,3.59Z"/>
      <path class="cls-2" d="M676.63,20c-.23.1-.4.28-.76.4l-7.17-.11c-.53-1.2-.86-2.43-2.16-3.64l-.19,20.26c4.13-.17,7.39.54,7.48,3.77.03.99-.42,2.62-1.79,2.88-4.52.87-9.12.88-13.69.43-2.32-.23-3.93-1.51-3.62-3.82.21-1.57,1.56-3.1,4.07-3.2l.05-28.83c-2.15-.35-3.31-1.41-3.42-3.07-.33-5.08,5.87-4.02,12.81-4.11l8.39,19.03Z"/>
      <path class="cls-2" d="M370.38,26.41l24.26-.25c3.22,2.79,6.01,6.36,8.73,10.26l3.59,1.34c1.33.5,2.01,2.02,1.8,3.31-.5,2.99-5.01,3.66-9.19,3.15-3.51-5.38-10.91-16.24-15.72-16.26l-5.98-.03v9.04c2.17-.11,4.29-.32,5.89.99,1.1.91,1.82,2.27,1.44,3.52-.26.85-1.3,2.04-2.53,2.25-5.07.86-10.1.81-15.23.14-1.57-.21-2.69-1.53-2.86-2.83-.16-1.21.43-2.57,1.6-3.32,1.24-.8,2.6-.83,4.2-.81v-10.49Z"/>
      <path class="cls-2" d="M400.49,8.37l-9.66.02c-.54,0-.88.23-1.01.63l-11.81-.79-.12,10.21c0,.78.28,1.47.48,1.99h-7.99s-.04-12.04-.04-12.04c-2.45-.18-5.14-.52-5.85-3.16-.34-1.27,1.34-4.23,2.86-4.21l22.04.41c4.81.09,9.02,3.09,11.1,6.94Z"/>
      <path class="cls-1" d="M14.25,8.85c-4.44,2.68-7.12,7.52-6.9,13.07.11,2.73-.14,5.54.9,8.12,3.37,8.36,16.81,10.98,24.88,3.67,1.61-1.46,3.98-1.2,5.18.44,1.04,1.42.82,3.29-.27,4.69-.23-.24-.67-.41-1.19-.41l-31.7.12C-1.58,31.28-1.41,16.19,3.88,8.36l9.51.04c.49,0,.87.18.86.45Z"/>
      <path class="cls-1" d="M535.56,8.42l-.2,28.47,9.49.48c.87.04,1.25.54,1.66.97l-29.75-.06c.43-.34.73-.9,1.59-.94l9.51-.42.05-28.5h7.65Z"/>
      <path class="cls-2" d="M621.36,8.4l-6.97.02v5.98s6.94,0,6.94,0l-.13,6h-6.81s0,5.99,0,5.99l6.64.03-.15,5.95-7.56.07c.36-.92.5-2.35.5-3.54l.06-20.51c-2.17.03-4.1-.08-5.85-1.17-1.23-.77-1.5-2.14-1.22-3.53.16-.81.79-2.07,2.14-2.27,4.66-.7,9.35-.77,13.98-.13,1.6.22,2.74,1.68,2.91,2.9.33,2.39-2.37,4.18-4.48,4.19Z"/>
      <path class="cls-2" d="M37.83,8.41l-11.57-.12c-4.13-.66-8.19-1.76-12.02.56.02-.27-.36-.45-.86-.45l-9.51-.04C9.29.34,20.07-2.02,29,1.75c1.39.59,2.26.75,3.59-.16,1.68-1.15,4.29-.41,4.88,1.64.51,1.79.36,3.54.37,5.18Z"/>
      <path class="cls-2" d="M535.56,8.42h-7.65s-9.57-.49-9.57-.49c-1.58-.08-2.27-1.63-2.49-2.86-.17-.96.22-3.3,1.72-3.46,9.2-.97,18.41-.97,27.65-.11,1.6.15,2.11,2.08,2.09,3.12-.02,1.32-.55,2.94-2.16,3.07l-9.59.73Z"/>
      <path class="cls-1" d="M595.37,20.42l.25,10.25c.69,4.32,4.44,6.94,8.52,7.21,3.73.24,7.79-1.88,9.18-5.41l7.56-.07c-.06,2.51-1.52,4.33-2.86,6.14l-25.14-.12c-.5,0-.97.18-1.21.43-1.38-1.77-3.15-3.76-3.25-6.42l-.48-12.55c.44.37,1.08.57,1.89.56l5.54-.02Z"/>
      <path class="cls-2" d="M254.83,8.42l-10.47-.11c-2.2-.03-6.69-2.53-11.06.6.04-.21-.14-.48-.47-.48l-8.52.02c3.72-8.99,14.92-10.05,24.49-6.49,1.9-1.08,4.13-1.12,5.46.58.6,2.03.6,3.99.58,5.88Z"/>
      <path class="cls-2" d="M546.51,38.33c.76.8.9,2.16.66,3.14-.18.72-.84,2.28-2.01,2.29l-25.37.3c-1.7.02-3.29-.75-3.73-2.07-.48-1.41-.41-2.84.71-3.72l29.75.06Z"/>
      <path class="cls-2" d="M595.37,8.42h-7.03s.02,5.98.02,5.98h7s0,6.01,0,6.01l-5.54.02c-.81,0-1.45-.19-1.89-.56l-.35-11.51c-1.55-.67-3.7-1.28-3.9-2.97-.17-1.46.36-3.62,2.26-3.9,4.55-.67,9.08-.69,13.59-.28,1.63.15,2.86,1.36,3.16,2.6.34,1.41-.17,3.1-1.7,3.72-1.86.74-3.85.88-5.64.88Z"/>
      <path class="cls-2" d="M254.57,38.88c-3.42,4.52-8.88,6.43-14.71,6.16-3.35-.15-6.41.05-9.42-1.78-2.15-1.31-5.87,2.71-8.02-.87-.75-1.24-.57-2.76-.56-3.97h31.48c.52-.01,1,.17,1.23.46Z"/>
      <path class="cls-2" d="M38.04,38.83c-5.24,6.72-17.9,8.01-26.8,4.28-2.61-1.1-4.42-2.76-6.1-4.57l31.7-.12c.52,0,.96.18,1.19.41Z"/>
      <path class="cls-1" d="M378.37,20.42l5.39-.08,16.17.14c-2.52,3.28-4.97,3.86-5.28,5.67l-24.26.25v-6s7.99.01,7.99.01Z"/>
      <path class="cls-2" d="M326.42,38.91c-7.82,8.46-20.68,8.14-28.63-.14.07-.15.3-.38.65-.38l27.99.51Z"/>
      <path class="cls-2" d="M107.01,38.67c-7.54,8.76-20.71,8.57-28.44,0h28.44Z"/>
      <path class="cls-1" d="M249.41,32.41h6.99c.03,2.37-.42,4.6-1.83,6.47-.23-.29-.71-.47-1.23-.47h-31.48s.03-5.46.03-5.46c.01-1.7,1.08-2.73,2.59-3.16,4.55-1.3,3.05,6.81,12.84,7.9,5.4.6,10.58-.68,12.08-5.27Z"/>
      <path class="cls-1" d="M82.87,32.45c.53,0,1.18.81,1.63,1.32,4.32,4.85,11.58,5.01,16.24.5.51-.5,1.04-1.24,1.65-1.42,2.67-.81,5.86-.53,8.7.2-.91,2.46-2.53,3.82-4.08,5.61h-28.44c-1.7-1.89-3.27-3.82-4.29-6.4l8.58.19Z"/>
      <path class="cls-1" d="M330.5,32.61c-1.07,2.44-2.29,4.34-4.09,6.29l-27.99-.51c-.35,0-.58.23-.65.38-1.81-1.88-3.14-3.98-4.1-6.48l8.37.18c2.75,2.63,5.93,5.61,10.34,5.47s7.76-2.91,10.2-5.94l7.91.63Z"/>
      <path class="cls-1" d="M245.02,20.45c3.93.02,7.9,2.69,9.88,5.84l-12.56.11c-.48,0-.79.21-.79.45l-8.21-1.87c-3.07-.7-5.38-2.32-7.18-4.46l18.86-.08Z"/>
      <path class="cls-2" d="M618.02,38.53c-3.13,4.26-7.6,6.69-13.16,6.61s-9.98-2.2-13.18-6.31c.23-.24.7-.43,1.21-.43l25.14.12Z"/>
      <path class="cls-2" d="M161.54,8.52l-12.17-.1c-2.02-.03-4.45-.39-5.57-2.4-.76-1.36-.06-2.76.75-3.67s1.89-1.38,3.33-1.32l9.23.41,4.43,7.08Z"/>
      <path class="cls-1" d="M679.33,19.66c.09.52.43.79,1,.79l6.74.26-2.64,5.89-13.09-.31-2.65-5.99,7.17.11c.36-.12.53-.3.76-.4.32.73.59,1.34,1.24,2.15l1.46-2.49Z"/>
      <path class="cls-1" d="M161.54,8.52l3.52,5.46c-.22.25-.7.43-1.19.43h-14.48s-.02-6-.02-6l12.17.1Z"/>
      <polygon class="cls-1" points="182.85 32.41 182.85 38.41 171.86 38.46 168.16 32.58 182.85 32.41"/>
      <polygon class="cls-2" points="684.43 26.6 681.3 33.46 674.59 33.83 671.34 26.28 684.43 26.6"/>
      <path class="cls-2" d="M245.02,20.45l-18.86.08c-1.49-1.77-2.53-3.71-2.76-6.14,2.23.13,4.98.08,7.13-.26,1.29,1.51,2.85,3.24,5.37,3.86l9.13,2.47Z"/>
      <path class="cls-1" d="M37.83,8.41c.03,4.39.19,8.85-3.66,8.48-4.17-.4-2.26-6.5-7.91-8.6l11.57.12Z"/>
      <path class="cls-2" d="M401.89,14.42c-.05,2.21-.61,4.3-1.97,6.06l-16.17-.14c5.67-1.08,11.1-2.05,10.64-7.6.25.52.4,1.15.93,1.71l6.57-.04Z"/>
      <path class="cls-2" d="M254.89,26.29c1.22,1.95,1.48,3.94,1.51,6.12h-6.99c-.78-3.45-4.2-4.72-7.87-5.55,0-.25.32-.45.79-.45l12.56-.11Z"/>
      <path class="cls-1" d="M254.83,8.42c-.03,1.89.34,4.02-.52,5.94-.51,1.14-2.12,1.97-3.14,1.92-3.29-.16-2.86-5.84-6.81-7.97l10.47.11Z"/>
      <polygon class="cls-2" points="182.85 38.41 182.84 44.4 175.58 44.32 171.86 38.46 182.85 38.41"/>
      <path class="cls-1" d="M400.49,8.37c1.04,1.93,1.45,3.86,1.4,6.05l-6.57.04c-.53-.56-.67-1.19-.93-1.71-.89-1.85-2.51-3.59-4.58-3.73.13-.4.47-.64,1.01-.63l9.66-.02Z"/>
      <path class="cls-1" d="M233.3,8.91c-1.67,1.2-3.29,2.85-2.78,5.21-2.15.35-4.9.4-7.13.26-.2-2.09.11-3.99.91-5.93l8.52-.02c.33,0,.51.27.47.48Z"/>
      <polygon class="cls-1" points="621.2 20.41 621.03 26.43 614.38 26.4 614.38 20.42 621.2 20.41"/>
      <polygon class="cls-1" points="621.36 8.4 621.33 14.41 614.38 14.4 614.38 8.42 621.36 8.4"/>
      <polygon class="cls-1" points="595.37 8.42 595.36 14.41 588.36 14.4 588.34 8.42 595.37 8.42"/>
    </g>
  </g>
</svg>