<?xml version="1.0" encoding="UTF-8"?>
<svg id="Layer_2" data-name="Layer 2" xmlns="http://www.w3.org/2000/svg" viewBox="0 0 168.82 168.93">
  <defs>
    <style>
      .cls-1 {
        fill: #bb351c;
      }

      .cls-2 {
        fill: #ad331c;
      }
    </style>
  </defs>
  <g id="Layer_1-2" data-name="Layer 1">
    <path class="cls-2" d="M164.38,79.7l4.44,4.57c.06.78-1.14,1.26-1.53,1.66l-165.76-.02c-.42-.43-2.04-1.14-1.35-1.84l4.3-4.37h159.91Z"/>
    <polygon class="cls-1" points="167.29 85.93 161.14 92.18 7.69 92.17 1.52 85.91 167.29 85.93"/>
    <polygon class="cls-1" points="158.13 73.41 164.38 79.7 4.46 79.71 10.71 73.41 158.13 73.41"/>
    <polygon class="cls-2" points="161.14 92.18 155.39 97.94 13.44 97.94 7.69 92.17 161.14 92.18"/>
    <polygon class="cls-2" points="152.4 67.67 158.13 73.41 10.71 73.41 16.44 67.67 152.4 67.67"/>
    <polygon class="cls-1" points="155.39 97.94 149.13 104.21 19.71 104.21 13.44 97.94 155.39 97.94"/>
    <path class="cls-1" d="M146.09,61.35l6.3,6.32H16.44s6.3-6.32,6.3-6.32c.27.27.59.45,1.29.45h120.78c.7,0,1.02-.19,1.29-.45Z"/>
    <polygon class="cls-2" points="149.13 104.21 143.4 109.95 25.44 109.95 19.71 104.21 149.13 104.21"/>
    <path class="cls-2" d="M140.44,55.7l5.65,5.66c-.27.27-.59.45-1.29.45H24.03c-.7,0-1.02-.19-1.29-.45l5.65-5.66h112.05Z"/>
    <polygon class="cls-1" points="143.4 109.95 137.13 116.21 31.71 116.21 25.44 109.95 143.4 109.95"/>
    <path class="cls-1" d="M134.09,49.36l6.35,6.34H28.4s6.35-6.34,6.35-6.34c.26.26.61.46,1.27.46h97.29c.45-.1.65-.25.79-.46Z"/>
    <polygon class="cls-2" points="137.13 116.21 131.4 121.95 37.44 121.95 31.71 116.21 137.13 116.21"/>
    <path class="cls-2" d="M128.44,43.7l5.65,5.66c-.14.2-.34.36-.79.45H36.02c-.67,0-1.01-.19-1.27-.45l5.65-5.66h88.05Z"/>
    <polygon class="cls-1" points="131.4 121.95 125.13 128.21 43.71 128.21 37.44 121.95 131.4 121.95"/>
    <polygon class="cls-1" points="122.13 37.41 128.44 43.7 40.4 43.7 46.71 37.41 122.13 37.41"/>
    <polygon class="cls-2" points="125.13 128.21 119.4 133.95 49.44 133.95 43.71 128.21 125.13 128.21"/>
    <polygon class="cls-2" points="116.39 31.67 122.13 37.41 46.71 37.41 52.44 31.67 116.39 31.67"/>
    <polygon class="cls-1" points="119.4 133.95 113.13 140.21 55.71 140.21 49.44 133.95 119.4 133.95"/>
    <polygon class="cls-1" points="110.39 25.67 116.39 31.67 52.44 31.67 58.45 25.67 110.39 25.67"/>
    <polygon class="cls-2" points="113.13 140.21 107.4 145.95 61.44 145.95 55.71 140.21 113.13 140.21"/>
    <polygon class="cls-2" points="104.36 19.67 110.39 25.67 58.45 25.67 64.47 19.66 104.36 19.67"/>
    <polygon class="cls-1" points="107.4 145.95 101.4 151.95 67.44 151.95 61.44 145.95 107.4 145.95"/>
    <polygon class="cls-1" points="98.33 13.69 104.36 19.67 64.47 19.66 70.49 13.67 98.33 13.69"/>
    <polygon class="cls-2" points="101.4 151.95 95.4 157.94 73.44 157.94 67.44 151.95 101.4 151.95"/>
    <polygon class="cls-2" points="76.67 7.61 92.13 7.78 98.33 13.69 70.49 13.67 76.67 7.61"/>
    <polygon class="cls-1" points="95.4 157.94 84.42 168.93 73.44 157.94 95.4 157.94"/>
    <path class="cls-1" d="M92.13,7.78l-15.46-.17,7.75-7.61,5.77,5.54c.78.75,1.53,1.37,1.94,2.24Z"/>
  </g>
</svg>