<?xml version="1.0" encoding="UTF-8"?>
<svg id="Layer_2" data-name="Layer 2" xmlns="http://www.w3.org/2000/svg" viewBox="0 0 2402.13 2402.13">
  <defs>
    <style>
      .cls-1 {
        fill: #fff;
        stroke-width: 2.13px;
      }

      .cls-1, .cls-2 {
        stroke: #000;
        stroke-miterlimit: 10;
      }

      .cls-2 {
        fill: none;
        stroke-width: 9.87px;
      }
    </style>
  </defs>
  <g id="Layer_1-2" data-name="Layer 1">
    <g>
      <rect class="cls-1" x="1.06" y="1.06" width="2400" height="2400"/>
      <g>
        <g id="b">
          <g id="c">
            <g>
              <g>
                <path d="m153.43,1441.16c-11.7,0-22.35-2.83-32.11-8.69-9.59-5.67-17.39-13.49-23.06-23.06-5.86-9.76-8.69-20.39-8.69-32.11v-126.66c0-11.7,2.83-22.35,8.69-32.11,5.67-9.59,13.49-17.39,23.06-23.06,9.76-5.67,20.39-8.69,32.11-8.69h216.94c16.32,0,30.32,5.33,42.04,15.96,11.89,10.63,18.99,23.76,21.29,39.55h-19.52c-2.13-10.63-7.1-19.33-15.26-26.08-7.99-6.73-17.56-10.1-28.55-10.1h-216.94c-12.42,0-23.06,4.26-31.58,12.96-8.69,8.52-12.96,19.16-12.96,31.58v126.63c0,12.42,4.26,23.06,12.96,31.58,8.52,8.69,19.16,12.96,31.58,12.96h216.94c12.59,0,23.05-4.26,31.75-12.96,8.69-8.69,12.76-19.16,12.76-31.58v-53.57h-144.55v-19.33h163.9v72.89c0,11.7-2.83,22.35-8.69,31.92-5.67,9.76-13.49,17.56-23.06,23.22-9.76,5.86-20.39,8.69-32.11,8.69h-216.94v.05Z"/>
                <path d="m484.21,1441.16v-254.38h19.33v235.03h271.02v19.33h-290.37l.02.02Z"/>
                <path d="m882.42,1441.16c-11.7,0-22.35-2.83-32.11-8.69-9.59-5.67-17.39-13.49-23.06-23.22-5.86-9.59-8.69-20.22-8.69-31.92v-126.68c0-11.53,2.83-22.35,8.69-31.92,5.67-9.76,13.49-17.39,23.06-23.22,9.76-5.67,20.39-8.69,32.11-8.69h235.03c11.7,0,22.52,3.03,32.11,8.69,9.76,5.67,17.39,13.49,23.06,23.06,5.86,9.76,8.69,20.39,8.69,32.11v126.63c0,11.7-2.83,22.35-8.69,32.11-5.67,9.59-13.3,17.39-23.06,23.06-9.59,5.86-20.39,8.69-32.11,8.69,0,0-235.03,0-235.03,0Zm266.78-32.28c8.52-8.52,12.76-19.16,12.76-31.58v-126.66c0-12.42-4.26-23.06-12.76-31.58-8.5-8.52-19.33-12.96-31.75-12.96h-235.03c-12.42,0-23.06,4.26-31.58,12.96-8.69,8.52-12.96,19.16-12.96,31.58v126.63c0,12.42,4.26,23.06,12.96,31.58,8.52,8.69,19.16,12.96,31.58,12.96h235.03c12.42,0,23.06-4.26,31.75-12.96v.02Z"/>
                <path d="m1234.16,1441.16v-254.38h280.78c11.7,0,22.52,3.03,32.11,8.69,9.76,5.67,17.39,13.49,23.22,23.06,5.67,9.76,8.52,20.39,8.52,32.11v9.06c0,15.09-4.96,28.75-15.09,41.15l-6.39,7.46,8.52,5.13c9.59,6.03,17.19,13.83,22.72,23.59,5.67,9.76,8.33,20.22,8.33,31.22v9.06c0,11.7-2.83,22.35-8.69,32.11-5.67,9.59-13.3,17.39-23.06,23.06-9.59,5.86-20.39,8.69-32.11,8.69h-298.87,0Zm312.53-149.71c8.52-8.69,12.76-19.16,12.76-31.75v-9.06c0-12.42-4.26-23.06-12.76-31.58-8.5-8.52-19.16-12.96-31.75-12.96h-261.45v98.3h261.45c12.59,0,23.06-4.26,31.75-12.96Zm18.09,117.43c8.52-8.52,12.76-19.16,12.76-31.58v-9.06c0-12.59-4.26-23.06-12.76-31.75-8.69-8.52-19.33-12.76-31.75-12.76h-279.54v98.08h279.54c12.42,0,23.06-4.26,31.75-12.96v.02Z"/>
                <path d="m1959.62,1441.16l-32.45-48.77h-256.49l-32.11,48.77h-23.22l170.81-254.19h25.55l171,254.19h-23.08Zm-160.71-241.06l-115.47,173.11h230.77l-115.3-173.11Z"/>
                <path d="m2022.22,1441.16v-254.38h19.33v235.03h271.02v19.33h-290.37l.02.02Z"/>
              </g>
              <g>
                <path d="m460.61,1023.72v-133.94H111.61v133.94h-22.04v-290.12h22.04v134.13h348.98v-134.13h22.04v290.12h-22.04.03Z"/>
                <path d="m544.97,1023.72v-290.12h362.13v22.04h-340.08v112.09h298.82v22.04h-298.82v111.87h340.08v22.04h-362.13v.03Z"/>
                <path d="m1375.04,1023.72v-255.31l-178.85,205.76h-32.57l-178.83-205.76v255.31h-22.04v-290.12h27.1l190.18,223.96,189.96-223.96h27.1v290.12h-22.04,0Z"/>
                <path d="m1530,1023.72c-13.34,0-25.5-3.23-36.63-9.92-10.94-6.46-19.83-15.39-26.3-26.49-6.68-10.94-9.92-23.06-9.92-36.41v-144.46c0-13.15,3.23-25.5,9.92-36.41,6.46-11.13,15.39-19.83,26.3-26.49,11.13-6.46,23.26-9.92,36.63-9.92h247.44c18.42,0,34.39,6.08,47.95,18.01,13.34,11.93,21.43,27.1,24.28,45.33h-22.26c-2.43-12.13-8.09-22.04-17.4-29.75-9.12-7.68-20.03-11.52-32.57-11.52h-247.44c-14.17,0-26.3,4.86-36.02,14.78-9.92,9.72-14.78,21.85-14.78,36.02v144.44c0,14.17,4.86,26.3,14.78,36.02,9.72,9.92,21.85,14.78,36.02,14.78h247.44c12.54,0,23.48-3.84,32.57-11.52,9.31-7.68,14.97-17.6,17.4-29.75h22.26c-2.85,18.42-10.94,33.37-24.28,45.33-13.56,11.93-29.53,18.01-47.95,18.01h-247.44v-.08Z"/>
                <path d="m1971.65,1023.72c-13.34,0-25.5-3.23-36.63-9.92-10.94-6.46-19.83-15.39-26.3-26.49-6.68-10.94-9.92-23.06-9.92-36.41v-144.46c0-13.15,3.23-25.5,9.92-36.41,6.46-11.13,15.39-19.83,26.3-26.49,11.13-6.46,23.26-9.92,36.63-9.92h268.07c13.34,0,25.69,3.45,36.63,9.92,11.13,6.46,19.83,15.39,26.3,26.3,6.68,11.13,9.92,23.26,9.92,36.63v144.44c0,13.34-3.23,25.5-9.92,36.63-6.46,10.94-15.16,19.83-26.3,26.3-10.94,6.68-23.26,9.92-36.63,9.92h-268.07v-.03Zm304.29-36.82c9.72-9.72,14.56-21.85,14.56-36.02v-144.44c0-14.17-4.86-26.3-14.56-36.02-9.7-9.72-22.04-14.78-36.21-14.78h-268.07c-14.17,0-26.3,4.86-36.02,14.78-9.92,9.72-14.78,21.85-14.78,36.02v144.44c0,14.17,4.86,26.3,14.78,36.02,9.72,9.92,21.85,14.78,36.02,14.78h268.07c14.17,0,26.3-4.86,36.21-14.78Z"/>
              </g>
              <g>
                <path d="m811.51,1661.57c-3.41-3.88-5.14-8.44-5.14-13.69v-64.73c0-5.25,1.73-9.82,5.14-13.69,3.46-3.79,7.73-6.1,12.92-6.93v6.35c-3.46.69-6.3,2.31-8.5,4.95-2.2,2.61-3.3,5.72-3.3,9.29v64.73c0,3.57,1.1,6.71,3.3,9.29,2.2,2.67,5.03,4.26,8.5,4.98v6.35c-5.2-.8-9.46-3.11-12.92-6.93v.03Z"/>
                <path d="m836.81,1656.95v-82.79h88.46c3.82,0,7.34.99,10.45,2.83,3.16,1.84,5.66,4.4,7.56,7.51,1.84,3.19,2.78,6.65,2.78,10.45v17.65c0,3.82-.93,7.34-2.78,10.45-1.9,3.19-4.4,5.66-7.56,7.56-3.11,1.84-6.63,2.78-10.45,2.78h-82.16v23.56h-6.3Zm98.77-34.01c2.78-2.83,4.21-6.24,4.21-10.34v-17.65c0-4.04-1.43-7.51-4.21-10.28-2.83-2.83-6.24-4.21-10.34-4.21h-82.16v46.72h82.16c4.1,0,7.51-1.43,10.34-4.21v-.03Z"/>
                <path d="m955.1,1662.14c3.46-.69,6.3-2.31,8.5-4.98,2.2-2.58,3.3-5.72,3.3-9.29v-64.73c0-3.57-1.1-6.71-3.3-9.29-2.2-2.64-5.03-4.26-8.5-4.95v-6.35c5.2.8,9.51,3.11,12.92,6.93,3.41,3.88,5.14,8.44,5.14,13.69v64.73c0,5.31-1.73,9.87-5.2,13.69-3.46,3.88-7.73,6.13-12.87,6.93v-6.38Z"/>
                <path d="m1026.24,1656.95v-82.79h6.3v76.5h88.21v6.3h-94.51Z"/>
                <path d="m1135.57,1580.45v-6.3h6.3v6.3h-6.3Zm0,76.5v-65.11h6.3v65.11h-6.3Z"/>
                <path d="m1300.69,1656.95v-44.33c0-4.04-1.37-7.51-4.21-10.28-2.78-2.83-6.24-4.21-10.28-4.21h-35.33c-4.04,0-7.51,1.37-10.28,4.21-2.83,2.78-4.21,6.24-4.21,10.28v44.33h-6.3v-44.33c0-4.04-1.37-7.51-4.21-10.28-2.78-2.83-6.24-4.21-10.28-4.21h-35.33c-4.04,0-7.45,1.37-10.23,4.1-2.78,2.78-4.15,6.19-4.26,10.34v44.41h-6.3v-65.11h6.3v5.2l4.1-2.36c3.35-1.9,6.82-2.83,10.39-2.83h35.33c5.94,0,11.14,2.36,15.59,7.09l2.01,2.36,2.09-2.36c4.45-4.73,9.65-7.09,15.59-7.09h35.33c3.82,0,7.29.93,10.45,2.83,3.11,1.84,5.66,4.4,7.51,7.51,1.84,3.16,2.83,6.63,2.83,10.45v44.33h-6.3v-.03Z"/>
                <path d="m1323.84,1580.45v-6.3h6.3v6.3h-6.3Zm0,76.5v-65.11h6.3v65.11h-6.3Z"/>
                <path d="m1367.67,1656.95c-3.82,0-7.29-.93-10.45-2.83-3.11-1.84-5.66-4.4-7.51-7.56-1.9-3.11-2.83-6.57-2.83-10.39v-62.01h6.3v17.65h41.16v6.3h-41.16v38.06c0,4.04,1.37,7.51,4.21,10.28,2.78,2.83,6.24,4.21,10.28,4.21h32.56v6.3h-32.56Z"/>
                <path d="m1431.85,1656.95c-3.82,0-7.29-.93-10.45-2.83-3.11-1.84-5.66-4.4-7.51-7.56-1.9-3.11-2.83-6.57-2.83-10.39v-26.51c0-3.35.99-6.35,2.89-9.07,1.9-2.67,4.45-4.78,7.62-6.41,3.16-1.57,6.63-2.36,10.45-2.36h43.83c3.82,0,7.29.8,10.45,2.36,3.16,1.57,5.72,3.68,7.62,6.41,1.9,2.72,2.89,5.72,2.89,9.07v17.85h-79.44v8.66c0,4.04,1.37,7.51,4.21,10.28,2.78,2.83,6.24,4.21,10.28,4.21h60.74v6.3h-60.74Zm58.65-47.3c0-3.11-1.43-5.83-4.21-8.14-2.83-2.25-6.3-3.41-10.45-3.41h-43.83c-4.15,0-7.67,1.15-10.45,3.41-2.83,2.31-4.21,5.03-4.21,8.14v11.6h73.14v-11.6h0Z"/>
                <path d="m1530.81,1656.95c-3.82,0-7.29-.93-10.45-2.83-3.11-1.84-5.66-4.4-7.51-7.51-1.9-3.16-2.83-6.63-2.83-10.45v-23.56c0-3.82.93-7.29,2.83-10.45,1.84-3.11,4.4-5.66,7.51-7.51,3.16-1.9,6.63-2.83,10.45-2.83h44.11c3.63,0,7.09.93,10.39,2.83l4.15,2.36v-22.85h6.3v82.79h-64.95Zm58.65-44.33c-.11-4.15-1.57-7.62-4.32-10.39-2.72-2.72-6.13-4.1-10.23-4.1h-44.11c-4.04,0-7.51,1.37-10.28,4.21-2.83,2.78-4.21,6.24-4.21,10.28v23.56c0,4.04,1.37,7.51,4.21,10.28,2.78,2.83,6.24,4.21,10.28,4.21h58.65v-38.06Z"/>
              </g>
            </g>
          </g>
        </g>
        <line class="cls-2" x1="774.56" y1="1615.52" x2="89.56" y2="1615.52"/>
        <line class="cls-2" x1="2312.56" y1="1615.52" x2="1627.57" y2="1615.52"/>
      </g>
    </g>
  </g>
</svg>