<?xml version="1.0" encoding="UTF-8"?>
<svg id="Layer_2" data-name="Layer 2" xmlns="http://www.w3.org/2000/svg" viewBox="0 0 138.83 88.65">
  <defs>
    <style>
      .cls-1 {
        fill: #004cff;
      }
    </style>
  </defs>
  <g id="Layer_1-2" data-name="Layer 1">
    <g>
      <path class="cls-1" d="M94.81,86.8c0,1.02-.83,1.84-1.84,1.84h-55.55c-7.04,0-13.68-3.09-18.21-8.48l-13.64-16.23c-3.6-4.28-5.57-9.7-5.57-15.29V1.84C0,.83.83,0,1.84,0h25.7c1.02,0,1.84.83,1.84,1.84v40.81c0,2.55.9,5.01,2.54,6.96l4.86,5.79c2.06,2.45,5.09,3.86,8.29,3.86h47.9c1.02,0,1.84.83,1.84,1.84v25.7Z"/>
      <path class="cls-1" d="M44.02,1.84c0-1.02.83-1.84,1.84-1.84h55.55c7.04,0,13.68,3.09,18.21,8.48l13.64,16.23c3.6,4.28,5.57,9.7,5.57,15.29v46.79c0,1.02-.83,1.84-1.84,1.84h-25.7c-1.02,0-1.84-.83-1.84-1.84v-40.81c0-2.55-.9-5.01-2.54-6.96l-4.86-5.79c-2.06-2.45-5.09-3.86-8.29-3.86h-47.9c-1.02,0-1.84-.83-1.84-1.84V1.84Z"/>
    </g>
  </g>
</svg>