<?xml version="1.0" encoding="UTF-8"?>
<svg id="Layer_2" data-name="Layer 2" xmlns="http://www.w3.org/2000/svg" viewBox="0 0 292.45 38.05">
  <defs>
    <style>
      .cls-1 {
        fill: #f2f2f2;
      }
    </style>
  </defs>
  <g id="Layer_1-2" data-name="Layer 1">
    <g>
      <path class="cls-1" d="M0,.58h9.8v27.38h27.1v9.51H0V.58Z"/>
      <path class="cls-1" d="M48.71.58v19.2c0,2.77.83,4.92,2.48,6.46,1.65,1.54,3.98,2.31,6.98,2.31h5.94c5.92,0,8.88-2.92,8.88-8.76V.58h9.8v19.25c0,5.84-1.6,10.34-4.81,13.49s-7.81,4.73-13.81,4.73h-7.21c-5.77,0-10.21-1.58-13.35-4.73-3.13-3.15-4.7-7.65-4.7-13.49V.58h9.8Z"/>
      <path class="cls-1" d="M110.11,26.46L123.6.58h10.38v36.9h-9.8v-15.68h-.58l-8.19,15.68h-11.18l-8.19-15.68h-.58v15.68h-9.8V.58h10.38l13.49,25.88h.58Z"/>
      <path class="cls-1" d="M136.86,19.25c0-3,.46-5.68,1.38-8.04.92-2.36,2.26-4.38,4.01-6.05,1.75-1.67,3.87-2.95,6.37-3.83,2.5-.88,5.3-1.33,8.42-1.33h20.81c3.23,0,6.12.44,8.68,1.33,2.56.88,4.73,2.16,6.51,3.83,1.79,1.67,3.16,3.69,4.12,6.05.96,2.36,1.44,5.04,1.44,8.04s-.47,5.6-1.41,7.93c-.94,2.33-2.3,4.29-4.06,5.91-1.77,1.61-3.94,2.84-6.51,3.69-2.58.84-5.5,1.27-8.76,1.27h-20.81c-3.15,0-5.98-.43-8.47-1.3-2.5-.86-4.61-2.1-6.34-3.72-1.73-1.61-3.06-3.58-3.98-5.91s-1.38-4.95-1.38-7.87ZM147.23,19.2c0,2.92.84,5.16,2.51,6.72s4.14,2.33,7.41,2.33h20.81c1.5,0,2.87-.16,4.12-.49,1.25-.33,2.33-.85,3.26-1.58.92-.73,1.63-1.67,2.13-2.83.5-1.15.75-2.54.75-4.15,0-3.23-.96-5.6-2.88-7.12-1.92-1.52-4.38-2.28-7.38-2.28h-20.81c-3.19,0-5.64.82-7.35,2.45-1.71,1.63-2.57,3.95-2.57,6.95Z"/>
      <path class="cls-1" d="M234.86,23.58h.58V.58h9.8v36.9h-10.38l-23-23h-.58v23h-9.8V.58h10.38l23,23Z"/>
      <path class="cls-1" d="M282.07,23.58h.58V.58h9.8v36.9h-10.38l-23-23h-.58v23h-9.8V.58h10.38l23,23Z"/>
    </g>
  </g>
</svg>